<svg xmlns="http://www.w3.org/2000/svg" viewBox="0 0 595.3 359"><switch><g><g opacity=".14"><circle cx="266.7" cy="108.2" r="61.4"/><path d="M326.5 108.2v1.1c0 .7 0 1.7-.1 3.1-.2 2.7-.6 6.6-1.9 11.5-.6 2.4-1.6 5.1-2.7 7.9-1.2 2.8-2.7 5.7-4.6 8.7-3.7 5.9-9.1 11.9-16.2 16.9-7 5-15.8 8.8-25.6 10.2-4.9.7-10 .8-15.2.3-5.1-.6-10.4-1.8-15.4-3.8-10-3.9-19.3-10.8-26.1-19.9-6.8-9-11-20.2-11.8-31.7-.8-11.5 1.8-23.1 7.3-33 5.4-9.9 13.7-18 23.1-23.3 1.2-.7 2.4-1.3 3.6-1.9 1.2-.5 2.4-1.1 3.7-1.6 2.4-1 5-1.8 7.5-2.4 5-1.2 10.1-1.9 15-1.8 4.9 0 9.7.7 14.2 1.8s8.7 2.8 12.6 4.7c7.7 3.9 13.8 9.2 18.3 14.5 2.3 2.7 4.2 5.4 5.7 7.9 1.6 2.6 2.8 5.1 3.8 7.4.5 1.1.7 1.8.7 1.8l-10.8 4.2c6.2 3.9 12 9.9 16.4 17.5 4.4-7.6 7.3-16.8 8.1-27l-10.8 4.2s-.3-.7-.8-1.9c-1.1-2.4-2.4-5.1-4-7.8-1.7-2.7-3.7-5.6-6-8.4-4.8-5.6-11.2-11.1-19.3-15.2-4-2.1-8.5-3.8-13.2-5-4.7-1.2-9.8-1.8-15-1.9-5.2 0-10.5.6-15.8 1.9-5.3 1.4-10.5 3.4-15.5 6.2-9.9 5.5-18.6 14.1-24.3 24.5-5.8 10.4-8.5 22.7-7.6 34.8.8 12.1 5.2 23.9 12.4 33.4 7.1 9.6 16.9 16.8 27.5 20.9 5.3 2.1 10.8 3.4 16.2 4 5.4.6 10.8.4 16-.3 10.3-1.5 19.6-5.5 27-10.7 7.4-5.2 13.1-11.6 17-17.8 2-3.1 3.6-6.2 4.8-9.1 1.2-2.9 2.2-5.7 2.9-8.3 1.4-5.1 1.8-9.3 2-12.1.1-1.4.1-2.5.1-3.2v-1.1h-3.2z"/></g><circle fill="#E6E7E8" stroke="#808285" stroke-width="6" stroke-miterlimit="10" cx="257.6" cy="101.3" r="61.4"/><circle opacity=".14" stroke="#000" stroke-width="6" stroke-miterlimit="10" cx="464.6" cy="89.2" r="61.4"/><circle fill="#E6E7E8" stroke="#808285" stroke-width="6" stroke-miterlimit="10" cx="455.5" cy="82.3" r="61.4"/><circle opacity=".14" stroke="#000" stroke-width="6" stroke-miterlimit="10" cx="159.4" cy="243.9" r="61.4"/><circle fill="#E6E7E8" stroke="#808285" stroke-width="6" stroke-miterlimit="10" cx="150.3" cy="237" r="61.4"/><g><circle fill="#FCE600" stroke="#FD0" stroke-width="6" stroke-miterlimit="10" cx="156.3" cy="240.4" r="24.6"/><circle fill="#39BCED" stroke="#008DD2" stroke-width="6" stroke-miterlimit="10" cx="458.1" cy="81.7" r="24.6"/><circle fill="#D71920" stroke="#BE1E2D" stroke-width="6" stroke-miterlimit="10" cx="260.7" cy="98.5" r="24.6"/><circle opacity=".14" stroke="#000" stroke-width="6" stroke-miterlimit="10" cx="449.1" cy="271.4" r="61.4"/><circle fill="#E6E7E8" stroke="#808285" stroke-width="6" stroke-miterlimit="10" cx="440.1" cy="264.5" r="61.4"/><circle fill="#54B948" stroke="#00873A" stroke-width="6" stroke-miterlimit="10" cx="438.2" cy="266" r="24.6"/><path fill="#6D6E71" stroke="#6D6E71" stroke-miterlimit="10" d="M288.7 93.5L302.3 71l11.6 22.1z"/><path fill="#6D6E71" d="M240.3 125.9s-1.2 1-3.3 2.7c-2.1 1.7-5 4.2-8.5 7.3-6.9 6.1-15.9 14.6-24.5 23.5s-16.7 18.2-22.5 25.4c-1.5 1.8-2.8 3.5-4 4.9-1.2 1.5-2.2 2.8-3 3.8-.5.6-.7.9-.7.9l-9.2-7c-1.3 8.9-2.3 17.7-2.9 26.5 7.9-3.8 15.9-7.3 23.8-10.4l-9.2-7s.3-.3.7-.9c.8-1.1 1.8-2.3 3-3.8s2.5-3.1 3.9-4.9c5.8-7.1 13.8-16.4 22.3-25.2s17.4-17.2 24.3-23.3c3.5-3 6.3-5.5 8.4-7.2 2.1-1.7 3.2-2.7 3.2-2.7l-1.8-2.6zM292.6 92.1s1.8-.5 4.9-1.4c3.1-.9 7.6-2.1 13-3.4 10.8-2.6 25.5-5.3 40.2-6.7 14.8-1.5 29.7-1.7 40.8-1.2 2.8.1 5.3.2 7.6.4 2.3.1 4.2.2 5.8.4.8.1 1.2.1 1.2.1l-1 11.5L411 89l5.9-2.6 3-1.3 3-1.2 6.1-2.4-5.2-4.1-2.6-2-2.7-2-5.4-4-5.6-3.8-1 11.5s-.5 0-1.3-.1c-1.6-.2-3.6-.3-5.9-.4-2.3-.1-4.9-.3-7.7-.4-11.2-.4-26.3-.2-41.2 1.3-14.9 1.5-29.7 4.2-40.7 6.8-5.5 1.3-10 2.5-13.2 3.4-3.2.9-5 1.4-5 1.4l1.1 3zM456.5 117.2s-1.6 6.4-3.8 16c-1.1 4.8-2.4 10.4-3.7 16.4-1.4 6-3 12.4-4.5 18.7-3.1 12.8-6.2 25.6-8.4 35.2-1.1 4.8-2 8.8-2.6 11.6l-.3 1.2-11.3-2.4c2.7 8.5 5.5 16.8 8.4 25.1 5.7-6.7 11.4-13.2 17.3-19.6l-11.3-2.4.3-1.2c.6-2.8 1.5-6.8 2.6-11.6 2.2-9.6 5.2-22.4 8.4-35.1 1.6-6.4 3.2-12.8 4.6-18.8 1.4-6 2.7-11.6 3.7-16.4 2.2-9.6 3.8-16 3.8-16l-3.2-.7zM280.5 121.4s2.2 1.5 6.1 4.2c3.9 2.7 9.4 6.6 16 11.3 13.2 9.4 30.6 22.1 47 36.1 2 1.8 4.1 3.5 6.1 5.3 2 1.8 3.9 3.6 5.9 5.4 1 .9 1.9 1.8 2.9 2.7 1 .9 1.9 1.8 2.8 2.7 1.8 1.8 3.7 3.6 5.5 5.4 1.8 1.8 3.4 3.6 5.1 5.4 1.7 1.8 3.3 3.5 4.8 5.2 3 3.5 6 6.7 8.4 9.9 5.1 6.2 8.9 11.7 11.7 15.5.5.7.8 1.2.8 1.2l-9.6 6.5c3.8 1.8 7.6 3.6 11.5 5.6 3.7 2 7.5 4.2 11.3 6.4 0-4.3 0-8.8-.1-13.3-.2-4.5-.6-8.9-.9-13.5l-9.6 6.5s-.3-.4-.8-1.2c-2.8-3.8-6.7-9.4-11.9-15.7-2.5-3.2-5.5-6.5-8.5-10-1.5-1.8-3.2-3.5-4.9-5.3-1.7-1.8-3.4-3.6-5.2-5.4-1.8-1.8-3.7-3.6-5.5-5.4l-2.8-2.8c-1-.9-2-1.8-2.9-2.7-2-1.8-3.9-3.6-6-5.4-2-1.8-4.1-3.5-6.1-5.3-2-1.8-4.1-3.5-6.2-5.2-2.1-1.7-4.1-3.5-6.2-5.1-4.2-3.3-8.3-6.6-12.4-9.6l-6-4.5c-2-1.4-3.9-2.9-5.8-4.2-3.7-2.8-7.3-5.3-10.6-7.7-6.6-4.7-12.1-8.6-16-11.3-3.9-2.7-6.1-4.2-6.1-4.2l-1.8 2.5z"/><path fill="#6D6E71" d="M194.7 235.6s1.1-.1 3-.1c1 0 2.2-.1 3.6-.2.7 0 1.5-.1 2.3-.1.8-.1 1.7-.2 2.6-.2 1.8-.2 3.9-.4 6.1-.6 2.2-.3 4.6-.6 7.1-1 1.3-.2 2.6-.4 3.9-.7 1.3-.2 2.7-.5 4.1-.8 1.4-.2 2.9-.6 4.3-.9 1.5-.3 3-.7 4.5-1.1 12.3-3 26.2-8.1 40.4-14.9 7.1-3.4 14.3-7.3 21.4-11.3 7.2-4.1 14.3-8.4 21.4-12.8 14.2-8.9 28-18.5 40.4-28.1 12.5-9.5 23.7-18.9 33.3-27 9.5-8.1 17.3-15.1 22.8-19.9.8-.7 1.3-1.1 1.3-1.1l7.7 8.6 8.2-25-25.7 5.4 7.7 8.6s-.5.4-1.3 1.1c-5.5 4.8-13.3 11.8-22.8 19.9-19 16.2-44.9 37.3-73.3 54.8-7.1 4.4-14.2 8.7-21.3 12.7-7.1 4-14.2 7.8-21.2 11.2-14 6.7-27.7 11.7-39.8 14.7-1.5.4-3 .7-4.4 1-1.4.3-2.9.7-4.3.9-1.4.3-2.7.5-4.1.8-1.3.2-2.6.5-3.8.6-2.5.3-4.8.7-7 1-2.2.2-4.2.4-6 .6-.9.1-1.8.2-2.6.2s-1.6.1-2.3.1c-1.4.1-2.6.1-3.6.2-1.9.1-3 .1-3 .1l.4 3.3zM186 253.3s3.2.7 8.9 2c2.8.6 6.2 1.4 10.2 2.2 3.9.8 8.4 1.8 13.2 2.8 4.9 1 10.1 2.1 15.7 3.1 2.8.5 5.7 1.1 8.6 1.6 2.9.5 5.9 1 9 1.5 1.5.3 3.1.5 4.6.8 1.6.2 3.1.5 4.7.7 3.2.5 6.3.9 9.6 1.4 3.2.4 6.5.8 9.8 1.2 1.6.2 3.3.4 4.9.6l4.9.5c13.2 1.4 26.4 1.9 38.8 2 3.1 0 6.2-.1 9.1-.1h2.2c.7 0 1.5-.1 2.2-.1 1.5-.1 2.9-.2 4.3-.2 2.8-.2 5.6-.3 8.3-.5 2.7-.3 5.2-.5 7.7-.8 1.2-.1 2.4-.2 3.6-.4.6-.1 1.2-.1 1.8-.2.6-.1 1.1-.2 1.7-.3 2.2-.3 4.4-.7 6.4-1 2-.3 3.9-.6 5.6-.8 1.7-.3 3.3-.7 4.7-.9l1.5-.3 2.2 11.3 5.1-4.4c.8-.7 1.7-1.4 2.5-2.2l2.5-2.3c3.3-3.1 6.4-6.2 9.5-9.2-4.3-1.2-8.5-2.4-12.6-3.6l-3.1-.9c-1-.3-2-.7-3.1-1l-6-2.1 2.2 11.3-1.5.3c-1.4.3-3 .6-4.7.9-1.7.3-3.6.5-5.5.8-2 .3-4.1.6-6.3.9-.6.1-1.1.2-1.7.3-.6.1-1.2.1-1.7.2-1.2.1-2.4.2-3.6.4-2.4.2-5 .5-7.6.8-2.6.2-5.4.3-8.2.5-1.4.1-2.8.2-4.3.2-.7 0-1.4.1-2.2.1h-2.2c-3 0-6 .1-9.1.1-12.3-.1-25.4-.6-38.5-2l-4.9-.5c-1.6-.2-3.3-.4-4.9-.6-3.2-.4-6.5-.8-9.7-1.2-3.2-.5-6.4-1-9.5-1.4-1.6-.2-3.1-.5-4.7-.7-1.5-.3-3.1-.5-4.6-.8l-9-1.5c-2.9-.6-5.8-1.1-8.6-1.6-5.6-1-10.8-2.1-15.6-3.1-4.8-1-9.3-2-13.2-2.8-3.9-.8-7.3-1.6-10.2-2.2-5.6-1.3-8.8-2-8.8-2l-.4 3.2z"/><path fill="#6D6E71" stroke="#6D6E71" stroke-miterlimit="10" d="M276.6 117.6l26.3.5-13.2 21.1zM248.2 120.5l-8.6 24.8-16-19.1zM209.2 243.9l-26-3.9 15.8-19.2zM193.9 268.8l-15.1-21.5 24.8-1.8zM460.7 108.8l10.1 24.3-24.7-3.8z"/></g></g></switch></svg>